<?xml version="1.0" standalone="no"?>
<!DOCTYPE svg PUBLIC "-//W3C//DTD SVG 20010904//EN"
 "http://www.w3.org/TR/2001/REC-SVG-20010904/DTD/svg10.dtd">
<svg version="1.0" xmlns="http://www.w3.org/2000/svg"
 width="513.000000pt" height="183.000000pt" viewBox="0 0 513.000000 183.000000"
 preserveAspectRatio="xMidYMid meet">

<g transform="translate(0.000000,183.000000) scale(0.100000,-0.100000)"
fill="#000000" stroke="none">
<path d="M40 1395 c0 -344 2 -395 15 -395 13 0 15 22 15 140 l0 140 215 0 215
0 0 -141 c0 -128 2 -140 18 -137 16 3 17 30 17 393 0 340 -2 390 -15 390 -13
0 -15 -34 -18 -233 l-2 -232 -213 2 -212 3 -3 233 c-2 197 -5 232 -17 232 -13
0 -15 -53 -15 -395z"/>
<path d="M687 1783 c-4 -3 -7 -181 -7 -395 l0 -388 250 0 c243 0 250 1 250 20
0 19 -7 20 -230 20 l-230 0 0 120 0 120 230 0 c223 0 230 1 230 20 0 19 -8 20
-227 22 l-228 3 -3 213 -2 212 230 0 c223 0 230 1 230 20 0 19 -7 20 -243 20
-134 0 -247 -3 -250 -7z"/>
<path d="M1338 1784 c-5 -4 -8 -182 -8 -396 0 -381 0 -388 20 -388 19 0 20 7
20 139 l0 140 123 3 c71 2 127 -1 134 -7 6 -5 44 -66 83 -135 81 -142 82 -143
104 -138 12 2 -2 34 -66 147 -77 136 -81 145 -62 155 44 25 120 112 132 152
37 124 -15 245 -131 306 -37 19 -61 23 -192 26 -82 2 -153 0 -157 -4z m305
-45 c155 -43 198 -262 72 -366 -49 -41 -91 -50 -230 -52 l-115 -2 0 215 0 216
118 0 c64 0 134 -5 155 -11z"/>
<path d="M20 925 c0 -13 285 -15 2527 -13 2010 2 2527 6 2531 16 3 9 -507 12
-2527 12 -2245 0 -2531 -2 -2531 -15z"/>
<path d="M47 834 c-4 -4 -7 -182 -7 -396 l0 -388 144 0 c156 0 203 10 263 56
79 60 114 186 78 280 -21 56 -74 117 -115 134 -17 7 -30 14 -30 17 0 2 14 22
31 43 56 70 41 179 -33 232 -30 21 -45 23 -178 26 -80 2 -149 0 -153 -4z m304
-51 c57 -34 75 -112 39 -171 -30 -49 -72 -62 -200 -62 l-110 0 0 125 0 125
121 0 c96 0 127 -4 150 -17z m60 -308 c64 -45 91 -104 87 -186 -5 -87 -36
-136 -109 -173 -49 -24 -63 -26 -181 -26 l-128 0 0 209 c0 185 2 210 16 213 9
2 74 1 144 -2 123 -5 130 -6 171 -35z"/>
<path d="M856 825 c-57 -20 -108 -66 -138 -125 -28 -52 -28 -53 -28 -254 0
-190 1 -204 24 -252 79 -169 315 -192 423 -42 48 67 55 112 51 319 -3 158 -6
190 -23 224 -57 115 -192 172 -309 130z m162 -41 c49 -20 90 -60 113 -109 16
-34 19 -66 19 -230 0 -214 -8 -244 -73 -302 -104 -92 -263 -61 -327 63 -24 47
-25 56 -25 234 0 212 6 239 67 299 59 60 148 78 226 45z"/>
<path d="M1340 540 c0 -329 1 -336 60 -404 93 -106 247 -113 353 -17 75 67 77
77 77 419 0 262 -2 302 -15 302 -13 0 -15 -38 -15 -281 0 -310 -4 -336 -57
-398 -97 -114 -276 -88 -345 48 l-28 55 0 288 c0 249 -2 288 -15 288 -13 0
-15 -40 -15 -300z"/>
<path d="M1985 830 c-14 -23 11 -30 115 -30 l110 0 2 -372 c3 -346 4 -373 21
-376 16 -3 17 20 17 372 l0 376 115 0 c108 0 115 1 115 20 0 19 -7 20 -244 20
-153 0 -247 -4 -251 -10z"/>
<path d="M2632 823 c3 -16 19 -18 146 -21 l142 -3 0 -354 0 -354 -142 -3
c-127 -3 -143 -5 -146 -21 -3 -16 14 -17 248 -17 234 0 251 1 248 18 -3 14
-17 17 -91 20 l-87 3 0 354 0 354 88 3 c69 2 87 6 87 18 0 13 -35 15 -248 18
-233 2 -248 1 -245 -15z"/>
<path d="M3460 831 c-72 -22 -139 -81 -166 -147 -20 -47 -20 -431 0 -478 59
-141 246 -200 368 -115 35 26 43 24 58 -11 8 -18 20 -30 31 -30 24 0 24 11 -2
55 l-21 35 23 53 c23 49 24 63 24 257 0 191 -1 208 -22 245 -59 109 -186 168
-293 136z m155 -50 c51 -23 101 -79 114 -128 15 -52 13 -379 -2 -420 -7 -18
-16 -33 -22 -33 -5 1 -30 35 -55 78 -25 42 -53 78 -63 80 -26 5 -21 -9 33
-104 28 -48 50 -94 48 -103 -2 -9 -23 -26 -48 -39 -36 -19 -57 -23 -106 -20
-77 5 -131 38 -171 105 l-28 48 0 200 c0 188 1 203 22 242 23 43 69 84 113
102 40 16 122 12 165 -8z"/>
<path d="M3924 827 c-3 -8 -4 -145 -2 -304 3 -318 4 -319 72 -391 52 -56 101
-76 181 -76 84 0 135 23 187 84 55 63 58 87 58 409 0 246 -2 291 -14 291 -12
0 -15 -47 -18 -297 -3 -297 -3 -298 -28 -343 -67 -119 -225 -147 -326 -57 -68
59 -68 60 -74 391 -4 227 -8 300 -17 304 -7 2 -16 -3 -19 -11z"/>
<path d="M4577 834 c-4 -4 -7 -182 -7 -396 l0 -388 251 0 c233 0 250 1 247 17
-3 16 -23 18 -231 21 l-227 2 0 125 0 125 231 0 c202 0 230 2 227 15 -3 14
-35 16 -228 18 l-225 2 -3 212 -2 213 227 2 c195 3 228 5 228 18 0 13 -35 15
-241 18 -132 1 -243 -1 -247 -4z"/>
</g>
</svg>
